<mxfile host="app.diagrams.net" modified="2024-04-06T12:39:53.028Z" agent="Mozilla/5.0 (Windows NT 10.0; WOW64) AppleWebKit/537.36 (KHTML, like Gecko) Chrome/102.0.0.0 Safari/537.36" version="24.2.2" etag="1zyQCT2nbmMVoZLdqQKR" type="github">
  <diagram name="Page-1" id="BsvDg4CXBgm8M_UVg2Io">
    <mxGraphModel>
      <root>
        <mxCell id="0" />
        <mxCell id="1" parent="0" />
      </root>
    </mxGraphModel>
  </diagram>
</mxfile>
